<svg xmlns="http://www.w3.org/2000/svg" style="border: 0 !important; clip: rect(0 0 0 0) !important; height: 1px !important; margin: -1px !important; overflow: hidden !important; padding: 0 !important; position: absolute !important; width: 1px !important;" class="root-svg-symbols-element">
  <defs>
      <clipPath id="clip0_95_64"><path fill="#fff" transform="translate(5.455 6.119)" d="M0 0H13.091V13.434H0z"/></clipPath>
<clipPath id="clip0_95_57"><path fill="#fff" transform="translate(5.455 6.119)" d="M0 0H13.091V13.434H0z"/></clipPath>
  </defs>
    <symbol id="burger" viewBox="0 0 36 36">
      <circle cx="18" cy="18" r="18" fill="#1B3CE9"/><path d="M9 11H27V12.2H9V11Z" fill="#fff"/><path fill-rule="evenodd" clip-rule="evenodd" d="M8.6001 10.6H27.4001V12.6H8.6001V10.6ZM9.0001 11V12.2H27.0001V11H9.0001Z" fill="#fff"/><path d="M9 17.2H27V18.4H9V17.2Z" fill="#fff"/><path fill-rule="evenodd" clip-rule="evenodd" d="M8.6001 16.7999H27.4001V18.7999H8.6001V16.7999ZM9.0001 17.1999V18.3999H27.0001V17.1999H9.0001Z" fill="#fff"/><path d="M9 23.3999H27V24.5999H9V23.3999Z" fill="#fff"/><path fill-rule="evenodd" clip-rule="evenodd" d="M8.6001 22.9999H27.4001V24.9999H8.6001V22.9999ZM9.0001 23.3999V24.5999H27.0001V23.3999H9.0001Z" fill="#fff"/>
    </symbol>
    <symbol id="cross" viewBox="0 0 20 20">
      <path d="M2 2L10 10M18 18L10 10M10 10L2 18L18 2" stroke="#000" stroke-width="3"/>
    </symbol>
    <symbol id="inst" viewBox="0 0 24 26">
      <ellipse cx="12" cy="12.836" rx="12" ry="12.315" fill="#1B3CE9"/><g clip-path="url(#clip0_95_64)" fill="#fff"><path d="M18.5307 10.0685C18.5001 9.35466 18.3876 8.86392 18.2264 8.43869C18.0602 7.98732 17.8045 7.5832 17.4694 7.24726C17.1421 6.90609 16.7457 6.64099 16.3109 6.47307C15.8942 6.30771 15.4185 6.19228 14.7229 6.16081C14.0221 6.12667 13.7997 6.11877 12.0223 6.11877C10.245 6.11877 10.0225 6.12667 9.32437 6.15814C8.6288 6.18961 8.1506 6.30515 7.73633 6.4704C7.29639 6.64099 6.90261 6.90342 6.57525 7.24726C6.2428 7.5832 5.98457 7.98998 5.82084 8.43613C5.65971 8.86392 5.54723 9.352 5.51656 10.0658C5.48329 10.785 5.4756 11.0133 5.4756 12.8372C5.4756 14.6611 5.48329 14.8894 5.51396 15.6059C5.54463 16.3197 5.65721 16.8105 5.81834 17.2357C5.98457 17.6871 6.2428 18.0912 6.57525 18.4271C6.90261 18.7683 7.29899 19.0334 7.73373 19.2013C8.1506 19.3667 8.6262 19.4821 9.32187 19.5136C10.0199 19.5452 10.2425 19.553 12.0198 19.553C13.7972 19.553 14.0196 19.5452 14.7178 19.5136C15.4134 19.4821 15.8916 19.3667 16.3059 19.2013C17.1856 18.8523 17.8812 18.1385 18.2213 17.2357C18.3824 16.8079 18.495 16.3197 18.5256 15.6059C18.5563 14.8894 18.564 14.6611 18.564 12.8372C18.564 11.0133 18.5614 10.785 18.5307 10.0685ZM17.3519 15.5534C17.3237 16.2095 17.2163 16.5638 17.1268 16.8C16.9068 17.3853 16.4542 17.8498 15.8839 18.0755C15.6537 18.1674 15.306 18.2776 14.6692 18.3064C13.9787 18.338 13.7716 18.3457 12.0249 18.3457C10.2783 18.3457 10.0686 18.338 9.38061 18.3064C8.74128 18.2776 8.39604 18.1674 8.16588 18.0755C7.88208 17.9679 7.62375 17.7973 7.41407 17.5742C7.1967 17.3564 7.03047 17.0939 6.92558 16.8027C6.83608 16.5665 6.72869 16.2095 6.70062 15.5561C6.66985 14.8475 6.66226 14.6349 6.66226 12.8424C6.66226 11.05 6.66985 10.8348 6.70062 10.1289C6.72869 9.47276 6.83608 9.11847 6.92558 8.88227C7.03047 8.59092 7.1967 8.32592 7.41667 8.11064C7.62884 7.88757 7.88458 7.71698 8.16848 7.60945C8.39864 7.51759 8.74647 7.40739 9.38321 7.37848C10.0737 7.34701 10.2809 7.33911 12.0274 7.33911C13.7767 7.33911 13.9838 7.34701 14.6718 7.37848C15.3111 7.40739 15.6563 7.51759 15.8865 7.60945C16.1703 7.71698 16.4286 7.88757 16.6383 8.11064C16.8557 8.32849 17.0219 8.59092 17.1268 8.88227C17.2163 9.11847 17.3237 9.47532 17.3519 10.1289C17.3825 10.8374 17.3902 11.05 17.3902 12.8424C17.3902 14.6349 17.3825 14.8449 17.3519 15.5534Z"/><path d="M12.0243 9.38611C10.1677 9.38611 8.66139 10.9318 8.66139 12.8372C8.66139 14.7425 10.1677 16.2882 12.0243 16.2882C13.8809 16.2882 15.3872 14.7425 15.3872 12.8372C15.3872 10.9318 13.8809 9.38611 12.0243 9.38611ZM12.0243 15.0758C10.8198 15.0758 9.84286 14.0733 9.84286 12.8372C9.84286 11.6011 10.8198 10.5986 12.0243 10.5986C13.2288 10.5986 14.2057 11.6011 14.2057 12.8372C14.2057 14.0733 13.2288 15.0758 12.0243 15.0758Z"/><path d="M16.3053 9.24964C16.3053 9.69455 15.9538 10.0553 15.5201 10.0553C15.0866 10.0553 14.735 9.69455 14.735 9.24964C14.735 8.80462 15.0866 8.44397 15.5201 8.44397C15.9538 8.44397 16.3053 8.80462 16.3053 9.24964Z"/></g>
    </symbol>
    <symbol id="phone" viewBox="0 0 15 14">
      <path d="M13.8116 10.2746L11.891 8.32084C11.2051 7.62308 10.039 7.90221 9.76462 8.80928C9.55884 9.4373 8.8729 9.78618 8.25555 9.6466C6.88368 9.29772 5.03165 7.48353 4.68868 6.01822C4.4829 5.39021 4.89446 4.69244 5.5118 4.48314C6.40352 4.20403 6.6779 3.01783 5.99196 2.32007L4.07134 0.366327C3.52259 -0.122109 2.69946 -0.122109 2.2193 0.366327L0.916023 1.69208C-0.387258 3.08761 1.05321 6.78576 4.27712 10.0653C7.50102 13.3448 11.1365 14.8799 12.5084 13.4843L13.8116 12.1586C14.2918 11.6003 14.2918 10.763 13.8116 10.2746Z" fill="#fff"/>
    </symbol>
    <symbol id="vk" viewBox="0 0 24 26">
      <ellipse cx="12" cy="12.836" rx="12" ry="12.315" fill="#1B3CE9"/><g clip-path="url(#clip0_95_57)"><path d="M18.4761 15.9257C18.4602 15.8907 18.4454 15.8616 18.4317 15.8383C18.2046 15.4185 17.7706 14.9032 17.1299 14.2924L17.1163 14.2784L17.1096 14.2715L17.1027 14.2645H17.0958C16.8051 13.98 16.6209 13.7888 16.5438 13.6908C16.4027 13.5043 16.3711 13.3155 16.4482 13.1242C16.5027 12.9796 16.7073 12.6744 17.0617 12.208C17.248 11.9608 17.3957 11.7627 17.5047 11.6135C18.2908 10.5409 18.6317 9.85551 18.5271 9.55704L18.4865 9.48729C18.4592 9.4453 18.3888 9.40688 18.2753 9.37185C18.1616 9.33689 18.0162 9.33111 17.839 9.35441L15.876 9.36832C15.8442 9.35676 15.7988 9.35784 15.7397 9.37185C15.6806 9.38586 15.651 9.39289 15.651 9.39289L15.6169 9.41041L15.5897 9.43145C15.567 9.44537 15.542 9.46985 15.5147 9.50483C15.4876 9.53969 15.4649 9.5806 15.4467 9.62723C15.233 10.1915 14.99 10.7161 14.7173 11.201C14.5492 11.4902 14.3948 11.7408 14.2538 11.9529C14.113 12.1651 13.9948 12.3213 13.8995 12.4215C13.804 12.5218 13.7178 12.6021 13.6404 12.6628C13.5631 12.7235 13.5041 12.7492 13.4633 12.7398C13.4223 12.7304 13.3838 12.7211 13.3473 12.7118C13.2837 12.6698 13.2326 12.6127 13.194 12.5404C13.1553 12.4681 13.1292 12.3772 13.1156 12.2676C13.102 12.1579 13.094 12.0636 13.0917 11.9843C13.0896 11.9051 13.0906 11.7931 13.0952 11.6485C13.0999 11.5039 13.102 11.4061 13.102 11.3547C13.102 11.1775 13.1054 10.9852 13.1121 10.7777C13.119 10.5702 13.1246 10.4058 13.1292 10.2846C13.1339 10.1634 13.136 10.0351 13.136 9.89988C13.136 9.76464 13.128 9.65859 13.1121 9.58161C13.0965 9.50473 13.0724 9.43011 13.0408 9.35776C13.0089 9.28549 12.9622 9.22958 12.901 9.18989C12.8397 9.15026 12.7635 9.1188 12.6727 9.09543C12.4319 9.0395 12.1252 9.00924 11.7525 9.00454C10.9074 8.99523 10.3643 9.05123 10.1235 9.17248C10.0281 9.2237 9.94172 9.2937 9.86451 9.38224C9.7827 9.48486 9.77129 9.54087 9.83035 9.55008C10.103 9.592 10.2961 9.69227 10.4097 9.8508L10.4506 9.93481C10.4825 9.99542 10.5143 10.1027 10.5461 10.2566C10.5779 10.4104 10.5984 10.5806 10.6074 10.7671C10.6301 11.1075 10.6301 11.399 10.6074 11.6414C10.5846 11.884 10.5632 12.0728 10.5426 12.208C10.5221 12.3432 10.4915 12.4528 10.4506 12.5367C10.4097 12.6207 10.3824 12.672 10.3688 12.6906C10.3552 12.7092 10.3438 12.7209 10.3348 12.7255C10.2757 12.7488 10.2143 12.7606 10.1507 12.7606C10.087 12.7606 10.0098 12.7279 9.91897 12.6626C9.82813 12.5973 9.73386 12.5076 9.63615 12.3933C9.53843 12.279 9.42824 12.1193 9.3055 11.9142C9.18287 11.709 9.05563 11.4665 8.92385 11.1868L8.81482 10.9839C8.74666 10.8533 8.65356 10.6633 8.53541 10.4138C8.41719 10.1643 8.3127 9.92295 8.22186 9.6898C8.18555 9.59187 8.131 9.51732 8.05831 9.46602L8.02419 9.44498C8.00151 9.42636 7.96511 9.40659 7.91517 9.38552C7.86515 9.36447 7.81296 9.34938 7.75839 9.3401L5.89083 9.35401C5.69999 9.35401 5.5705 9.39838 5.50232 9.48699L5.47504 9.52891C5.4614 9.55226 5.45453 9.58955 5.45453 9.64087C5.45453 9.69217 5.46816 9.75514 5.49545 9.82969C5.76808 10.4872 6.06456 11.1214 6.38488 11.7323C6.70521 12.3431 6.98357 12.8352 7.21979 13.208C7.45606 13.5811 7.69689 13.9332 7.94229 14.2642C8.18768 14.5953 8.35011 14.8075 8.42958 14.9007C8.50915 14.9941 8.57165 15.0639 8.61708 15.1105L8.78751 15.2784C8.89656 15.3903 9.0567 15.5244 9.268 15.6806C9.47935 15.8368 9.71333 15.9907 9.97006 16.1424C10.2268 16.2938 10.5256 16.4174 10.8664 16.5129C11.2072 16.6086 11.5389 16.647 11.8615 16.6285H12.6454C12.8043 16.6144 12.9248 16.5631 13.0066 16.4746L13.0337 16.4395C13.052 16.4117 13.0691 16.3684 13.0848 16.3102C13.1008 16.252 13.1087 16.1877 13.1087 16.1179C13.104 15.9174 13.1189 15.7367 13.1529 15.5759C13.1869 15.4151 13.2256 15.2938 13.2689 15.2122C13.3122 15.1306 13.361 15.0617 13.4154 15.0059C13.4699 14.95 13.5087 14.9161 13.5315 14.9045C13.5541 14.8927 13.5722 14.8848 13.5858 14.88C13.6948 14.8427 13.8232 14.8788 13.971 14.9885C14.1187 15.0981 14.2572 15.2334 14.3868 15.3942C14.5163 15.5552 14.6719 15.7357 14.8537 15.9362C15.0355 16.1368 15.1945 16.2858 15.3308 16.3839L15.467 16.4678C15.558 16.5238 15.6762 16.5751 15.8216 16.6218C15.9668 16.6684 16.094 16.68 16.2032 16.6567L17.948 16.6288C18.1206 16.6288 18.2549 16.5995 18.3501 16.5413C18.4456 16.483 18.5023 16.4188 18.5205 16.3489C18.5388 16.279 18.5398 16.1997 18.524 16.111C18.5078 16.0225 18.4919 15.9607 18.4761 15.9257Z" fill="#fff"/></g>
    </symbol></svg>