<svg xmlns="http://www.w3.org/2000/svg" style="border: 0 !important; clip: rect(0 0 0 0) !important; height: 1px !important; margin: -1px !important; overflow: hidden !important; padding: 0 !important; position: absolute !important; width: 1px !important;" class="root-svg-symbols-element">
  <defs>
      <clipPath id="clip0_95_64"><path fill="#fff" transform="translate(5.455 6.119)" d="M0 0H13.091V13.434H0z"/></clipPath>
<clipPath id="clip0_95_57"><path fill="#fff" transform="translate(5.455 6.119)" d="M0 0H13.091V13.434H0z"/></clipPath>
  </defs>
    <symbol id="burger" viewBox="0 0 36 36">
      <circle cx="18" cy="18" r="18" fill="#67087c"/><path d="M9 11H27V12.2H9V11Z" fill="#fff"/><path fill-rule="evenodd" clip-rule="evenodd" d="M8.6001 10.6H27.4001V12.6H8.6001V10.6ZM9.0001 11V12.2H27.0001V11H9.0001Z" fill="#fff"/><path d="M9 17.2H27V18.4H9V17.2Z" fill="#fff"/><path fill-rule="evenodd" clip-rule="evenodd" d="M8.6001 16.7999H27.4001V18.7999H8.6001V16.7999ZM9.0001 17.1999V18.3999H27.0001V17.1999H9.0001Z" fill="#fff"/><path d="M9 23.3999H27V24.5999H9V23.3999Z" fill="#fff"/><path fill-rule="evenodd" clip-rule="evenodd" d="M8.6001 22.9999H27.4001V24.9999H8.6001V22.9999ZM9.0001 23.3999V24.5999H27.0001V23.3999H9.0001Z" fill="#fff"/>
    </symbol>
    <symbol id="cross" viewBox="0 0 20 20">
      <path d="M2 2L10 10M18 18L10 10M10 10L2 18L18 2" stroke="#000" stroke-width="3"/>
    </symbol>
    <symbol id="inst" viewBox="0 0 24 26">
      <ellipse cx="12" cy="12.836" rx="12" ry="12.315" fill="#67087c"/><g clip-path="url(#clip0_95_64)" fill="#fff"><path d="M18.5307 10.0685C18.5001 9.35466 18.3876 8.86392 18.2264 8.43869C18.0602 7.98732 17.8045 7.5832 17.4694 7.24726C17.1421 6.90609 16.7457 6.64099 16.3109 6.47307C15.8942 6.30771 15.4185 6.19228 14.7229 6.16081C14.0221 6.12667 13.7997 6.11877 12.0223 6.11877C10.245 6.11877 10.0225 6.12667 9.32437 6.15814C8.6288 6.18961 8.1506 6.30515 7.73633 6.4704C7.29639 6.64099 6.90261 6.90342 6.57525 7.24726C6.2428 7.5832 5.98457 7.98998 5.82084 8.43613C5.65971 8.86392 5.54723 9.352 5.51656 10.0658C5.48329 10.785 5.4756 11.0133 5.4756 12.8372C5.4756 14.6611 5.48329 14.8894 5.51396 15.6059C5.54463 16.3197 5.65721 16.8105 5.81834 17.2357C5.98457 17.6871 6.2428 18.0912 6.57525 18.4271C6.90261 18.7683 7.29899 19.0334 7.73373 19.2013C8.1506 19.3667 8.6262 19.4821 9.32187 19.5136C10.0199 19.5452 10.2425 19.553 12.0198 19.553C13.7972 19.553 14.0196 19.5452 14.7178 19.5136C15.4134 19.4821 15.8916 19.3667 16.3059 19.2013C17.1856 18.8523 17.8812 18.1385 18.2213 17.2357C18.3824 16.8079 18.495 16.3197 18.5256 15.6059C18.5563 14.8894 18.564 14.6611 18.564 12.8372C18.564 11.0133 18.5614 10.785 18.5307 10.0685ZM17.3519 15.5534C17.3237 16.2095 17.2163 16.5638 17.1268 16.8C16.9068 17.3853 16.4542 17.8498 15.8839 18.0755C15.6537 18.1674 15.306 18.2776 14.6692 18.3064C13.9787 18.338 13.7716 18.3457 12.0249 18.3457C10.2783 18.3457 10.0686 18.338 9.38061 18.3064C8.74128 18.2776 8.39604 18.1674 8.16588 18.0755C7.88208 17.9679 7.62375 17.7973 7.41407 17.5742C7.1967 17.3564 7.03047 17.0939 6.92558 16.8027C6.83608 16.5665 6.72869 16.2095 6.70062 15.5561C6.66985 14.8475 6.66226 14.6349 6.66226 12.8424C6.66226 11.05 6.66985 10.8348 6.70062 10.1289C6.72869 9.47276 6.83608 9.11847 6.92558 8.88227C7.03047 8.59092 7.1967 8.32592 7.41667 8.11064C7.62884 7.88757 7.88458 7.71698 8.16848 7.60945C8.39864 7.51759 8.74647 7.40739 9.38321 7.37848C10.0737 7.34701 10.2809 7.33911 12.0274 7.33911C13.7767 7.33911 13.9838 7.34701 14.6718 7.37848C15.3111 7.40739 15.6563 7.51759 15.8865 7.60945C16.1703 7.71698 16.4286 7.88757 16.6383 8.11064C16.8557 8.32849 17.0219 8.59092 17.1268 8.88227C17.2163 9.11847 17.3237 9.47532 17.3519 10.1289C17.3825 10.8374 17.3902 11.05 17.3902 12.8424C17.3902 14.6349 17.3825 14.8449 17.3519 15.5534Z"/><path d="M12.0243 9.38611C10.1677 9.38611 8.66139 10.9318 8.66139 12.8372C8.66139 14.7425 10.1677 16.2882 12.0243 16.2882C13.8809 16.2882 15.3872 14.7425 15.3872 12.8372C15.3872 10.9318 13.8809 9.38611 12.0243 9.38611ZM12.0243 15.0758C10.8198 15.0758 9.84286 14.0733 9.84286 12.8372C9.84286 11.6011 10.8198 10.5986 12.0243 10.5986C13.2288 10.5986 14.2057 11.6011 14.2057 12.8372C14.2057 14.0733 13.2288 15.0758 12.0243 15.0758Z"/><path d="M16.3053 9.24964C16.3053 9.69455 15.9538 10.0553 15.5201 10.0553C15.0866 10.0553 14.735 9.69455 14.735 9.24964C14.735 8.80462 15.0866 8.44397 15.5201 8.44397C15.9538 8.44397 16.3053 8.80462 16.3053 9.24964Z"/></g>
    </symbol>
    <symbol id="phone" viewBox="0 0 15 14">
      <path d="M13.8116 10.2746L11.891 8.32084C11.2051 7.62308 10.039 7.90221 9.76462 8.80928C9.55884 9.4373 8.8729 9.78618 8.25555 9.6466C6.88368 9.29772 5.03165 7.48353 4.68868 6.01822C4.4829 5.39021 4.89446 4.69244 5.5118 4.48314C6.40352 4.20403 6.6779 3.01783 5.99196 2.32007L4.07134 0.366327C3.52259 -0.122109 2.69946 -0.122109 2.2193 0.366327L0.916023 1.69208C-0.387258 3.08761 1.05321 6.78576 4.27712 10.0653C7.50102 13.3448 11.1365 14.8799 12.5084 13.4843L13.8116 12.1586C14.2918 11.6003 14.2918 10.763 13.8116 10.2746Z" fill="#fff"/>
    </symbol>
    <symbol id="vk" viewBox="0 0 24 26">
      <ellipse cx="12" cy="12.836" rx="12" ry="12.315" fill="#67087c"/>
      <g clip-path="url(#clip0_95_57)">
        <path style=" stroke:none;fill-rule:evenodd;fill:rgb(100%,100%,100%);fill-opacity:1;" d="M 5.429688 11.875 C 8.925781 10.355469 11.253906 9.347656 12.425781 8.855469 C 15.753906 7.46875 16.453125 7.226562 16.902344 7.21875 C 17.003906 7.21875 17.222656 7.238281 17.371094 7.355469 C 17.492188 7.457031 17.523438 7.585938 17.542969 7.6875 C 17.5625 7.785156 17.582031 7.996094 17.5625 8.15625 C 17.382812 10.054688 16.601562 14.664062 16.203125 16.78125 C 16.035156 17.683594 15.703125 17.984375 15.382812 18.011719 C 14.683594 18.074219 14.152344 17.550781 13.484375 17.113281 C 12.425781 16.421875 11.835938 15.992188 10.804688 15.3125 C 9.617188 14.535156 10.386719 14.105469 11.066406 13.40625 C 11.246094 13.222656 14.3125 10.425781 14.375 10.175781 C 14.382812 10.144531 14.382812 10.027344 14.3125 9.964844 C 14.242188 9.90625 14.144531 9.925781 14.0625 9.945312 C 13.953125 9.964844 12.273438 11.085938 9.007812 13.292969 C 8.527344 13.625 8.097656 13.785156 7.707031 13.773438 C 7.277344 13.765625 6.457031 13.535156 5.835938 13.335938 C 5.085938 13.09375 4.488281 12.964844 4.539062 12.542969 C 4.566406 12.324219 4.867188 12.105469 5.429688 11.875 Z M 5.429688 11.875 "/>
      </g>
    </symbol></svg>