<svg width="24" height="26" viewBox="0 0 24 26" fill="none" xmlns="http://www.w3.org/2000/svg"><ellipse cx="12" cy="12.836" rx="12" ry="12.315" fill="#1B3CE9"/><g clip-path="url(#clip0_95_64)" fill="#fff"><path d="M18.5307 10.0685C18.5001 9.35466 18.3876 8.86392 18.2264 8.43869C18.0602 7.98732 17.8045 7.5832 17.4694 7.24726C17.1421 6.90609 16.7457 6.64099 16.3109 6.47307C15.8942 6.30771 15.4185 6.19228 14.7229 6.16081C14.0221 6.12667 13.7997 6.11877 12.0223 6.11877C10.245 6.11877 10.0225 6.12667 9.32437 6.15814C8.6288 6.18961 8.1506 6.30515 7.73633 6.4704C7.29639 6.64099 6.90261 6.90342 6.57525 7.24726C6.2428 7.5832 5.98457 7.98998 5.82084 8.43613C5.65971 8.86392 5.54723 9.352 5.51656 10.0658C5.48329 10.785 5.4756 11.0133 5.4756 12.8372C5.4756 14.6611 5.48329 14.8894 5.51396 15.6059C5.54463 16.3197 5.65721 16.8105 5.81834 17.2357C5.98457 17.6871 6.2428 18.0912 6.57525 18.4271C6.90261 18.7683 7.29899 19.0334 7.73373 19.2013C8.1506 19.3667 8.6262 19.4821 9.32187 19.5136C10.0199 19.5452 10.2425 19.553 12.0198 19.553C13.7972 19.553 14.0196 19.5452 14.7178 19.5136C15.4134 19.4821 15.8916 19.3667 16.3059 19.2013C17.1856 18.8523 17.8812 18.1385 18.2213 17.2357C18.3824 16.8079 18.495 16.3197 18.5256 15.6059C18.5563 14.8894 18.564 14.6611 18.564 12.8372C18.564 11.0133 18.5614 10.785 18.5307 10.0685ZM17.3519 15.5534C17.3237 16.2095 17.2163 16.5638 17.1268 16.8C16.9068 17.3853 16.4542 17.8498 15.8839 18.0755C15.6537 18.1674 15.306 18.2776 14.6692 18.3064C13.9787 18.338 13.7716 18.3457 12.0249 18.3457C10.2783 18.3457 10.0686 18.338 9.38061 18.3064C8.74128 18.2776 8.39604 18.1674 8.16588 18.0755C7.88208 17.9679 7.62375 17.7973 7.41407 17.5742C7.1967 17.3564 7.03047 17.0939 6.92558 16.8027C6.83608 16.5665 6.72869 16.2095 6.70062 15.5561C6.66985 14.8475 6.66226 14.6349 6.66226 12.8424C6.66226 11.05 6.66985 10.8348 6.70062 10.1289C6.72869 9.47276 6.83608 9.11847 6.92558 8.88227C7.03047 8.59092 7.1967 8.32592 7.41667 8.11064C7.62884 7.88757 7.88458 7.71698 8.16848 7.60945C8.39864 7.51759 8.74647 7.40739 9.38321 7.37848C10.0737 7.34701 10.2809 7.33911 12.0274 7.33911C13.7767 7.33911 13.9838 7.34701 14.6718 7.37848C15.3111 7.40739 15.6563 7.51759 15.8865 7.60945C16.1703 7.71698 16.4286 7.88757 16.6383 8.11064C16.8557 8.32849 17.0219 8.59092 17.1268 8.88227C17.2163 9.11847 17.3237 9.47532 17.3519 10.1289C17.3825 10.8374 17.3902 11.05 17.3902 12.8424C17.3902 14.6349 17.3825 14.8449 17.3519 15.5534Z"/><path d="M12.0243 9.38611C10.1677 9.38611 8.66139 10.9318 8.66139 12.8372C8.66139 14.7425 10.1677 16.2882 12.0243 16.2882C13.8809 16.2882 15.3872 14.7425 15.3872 12.8372C15.3872 10.9318 13.8809 9.38611 12.0243 9.38611ZM12.0243 15.0758C10.8198 15.0758 9.84286 14.0733 9.84286 12.8372C9.84286 11.6011 10.8198 10.5986 12.0243 10.5986C13.2288 10.5986 14.2057 11.6011 14.2057 12.8372C14.2057 14.0733 13.2288 15.0758 12.0243 15.0758Z"/><path d="M16.3053 9.24964C16.3053 9.69455 15.9538 10.0553 15.5201 10.0553C15.0866 10.0553 14.735 9.69455 14.735 9.24964C14.735 8.80462 15.0866 8.44397 15.5201 8.44397C15.9538 8.44397 16.3053 8.80462 16.3053 9.24964Z"/></g><defs><clipPath id="clip0_95_64"><path fill="#fff" transform="translate(5.455 6.119)" d="M0 0H13.091V13.434H0z"/></clipPath></defs></svg>