<svg width="15" height="14" viewBox="0 0 15 14" fill="none" xmlns="http://www.w3.org/2000/svg"><path d="M13.8116 10.2746L11.891 8.32084C11.2051 7.62308 10.039 7.90221 9.76462 8.80928C9.55884 9.4373 8.8729 9.78618 8.25555 9.6466C6.88368 9.29772 5.03165 7.48353 4.68868 6.01822C4.4829 5.39021 4.89446 4.69244 5.5118 4.48314C6.40352 4.20403 6.6779 3.01783 5.99196 2.32007L4.07134 0.366327C3.52259 -0.122109 2.69946 -0.122109 2.2193 0.366327L0.916023 1.69208C-0.387258 3.08761 1.05321 6.78576 4.27712 10.0653C7.50102 13.3448 11.1365 14.8799 12.5084 13.4843L13.8116 12.1586C14.2918 11.6003 14.2918 10.763 13.8116 10.2746Z" fill="#fff"/></svg>